<svg xmlns="http://www.w3.org/2000/svg" width="24" height="24" xml:space="preserve"><g fill="#424242"><path d="M12 2.25c-5.574 0-10.094 4.52-10.094 10.094 0 5.575 4.52 10.094 10.094 10.094 5.575 0 10.094-4.519 10.094-10.094C22.094 6.77 17.575 2.25 12 2.25zm0 18.842c-4.823 0-8.748-3.925-8.748-8.748S7.177 3.596 12 3.596s8.748 3.925 8.748 8.748-3.925 8.748-8.748 8.748z"/><path d="m15.726 7.667-3.699 3.7-3.319-3.7a.672.672 0 1 0-.951.952l3.318 3.7-3.75 3.751a.672.672 0 0 0 .951.95l3.701-3.697 3.318 3.697a.669.669 0 0 0 .95 0 .67.67 0 0 0 0-.95l-3.321-3.699 3.752-3.752a.673.673 0 0 0-.95-.952z"/></g></svg>