<svg xmlns="http://www.w3.org/2000/svg" viewBox="0 0 443 443" style="enable-background:new 0 0 443 443" xml:space="preserve" width="512" height="512"><g fill="#b5b5b5"><path d="M61.785 128h60v290h-60zM211.785 250.65V128h-60v290h44.172c-14.861-21.067-23.602-46.746-23.602-74.43.001-36.425 15.131-69.377 39.43-92.92zM301.785 214.141V128h-60v100.918c17.946-9.43 38.359-14.777 60-14.777zM321.785 38h-83.384V0H125.169v38H41.785v60h280V38zm-166.616-8h53.232v8h-53.232v-8z"/><path d="M301.785 244.141c-54.826 0-99.429 44.604-99.429 99.429S246.959 443 301.785 443s99.43-44.604 99.43-99.43-44.604-99.429-99.43-99.429zm54.176 132.392-21.213 21.213-32.963-32.963-32.963 32.963-21.213-21.213 32.963-32.963-32.963-32.963 21.213-21.213 32.963 32.963 32.963-32.963 21.213 21.213-32.963 32.963 32.963 32.963z"/></g></svg>