<svg xmlns="http://www.w3.org/2000/svg" width="60" height="60" xml:space="preserve"><path fill="#25D366" d="M29.968 59.332C13.667 59.332.452 46.117.452 29.816.452 13.513 13.667.3 29.968.3 46.27.3 59.484 13.513 59.484 29.816c-.001 16.301-13.214 29.516-29.516 29.516z"/><g fill-rule="evenodd" clip-rule="evenodd" fill="#FFF"><path d="M46.15 28.996c-.216-8.528-7.241-15.373-15.888-15.373-8.543 0-15.509 6.689-15.88 15.083a15.66 15.66 0 0 0 2.261 8.84l-2.864 8.461 8.803-2.798a15.931 15.931 0 0 0 7.68 1.964c8.782 0 15.895-7.063 15.895-15.776 0-.133 0-.266-.007-.401zM30.262 42.659c-2.717 0-5.239-.804-7.353-2.195l-5.134 1.637 1.667-4.926a13.129 13.129 0 0 1-2.545-7.777c0-.431.022-.863.067-1.288.655-6.711 6.37-11.973 13.299-11.973 7.017 0 12.784 5.396 13.32 12.227.03.342.045.685.045 1.034-.001 7.315-5.999 13.261-13.366 13.261z"/><path d="M37.546 32.584c-.393-.194-2.306-1.132-2.663-1.26-.356-.133-.617-.192-.878.194s-1.012 1.259-1.235 1.511c-.23.26-.454.29-.849.099-.387-.195-1.645-.598-3.133-1.922-1.153-1.019-1.942-2.284-2.166-2.672s-.021-.596.171-.789c.178-.178.387-.453.587-.677.053-.067.097-.127.142-.187.089-.142.156-.275.246-.461.133-.261.067-.485-.03-.678-.097-.193-.878-2.097-1.206-2.871-.32-.775-.647-.642-.878-.642-.224 0-.484-.037-.745-.037s-.684.098-1.042.484c-.357.388-1.362 1.326-1.362 3.23 0 .447.082.893.201 1.317.395 1.362 1.242 2.486 1.392 2.68.193.254 2.693 4.286 6.651 5.842 3.967 1.541 3.967 1.025 4.682.959.715-.06 2.308-.929 2.627-1.837.328-.9.328-1.677.231-1.839-.095-.154-.354-.251-.743-.444z"/></g></svg>