<svg xmlns="http://www.w3.org/2000/svg" width="43" height="43" xml:space="preserve"><circle fill="#212121" cx="21.5" cy="21.499" r="21.5"/><path fill="#FFF" d="M32.194 20.306v-2.378h-2.378v2.378h-2.377v2.378h2.377v2.377h2.378v-2.377h2.377v-2.378h-2.377zm-12.018-2.774 2.113-2.113s-7.166-6.379-13.01 2.397c0 0-2.939 5.311 2.1 10.156 0 0 4.121 3.592 9.747.76 0 0 4.569-2.245 3.407-8.287h-7.527v2.642h4.755s-.08 2.562-3.5 3.79c0 0-3.718 1.01-5.931-2.521 0 0-2.034-3.778 1.123-6.803-.013 0 2.958-2.925 6.724-.013l-.001-.008z"/></svg>