<svg xmlns="http://www.w3.org/2000/svg" width="65" height="65" xml:space="preserve"><path fill="#F44336" d="M61.405 15.97c-1.708-3.035-3.559-3.594-7.329-3.806-3.768-.256-13.24-.362-21.444-.362-8.222 0-17.697.106-21.46.358-3.763.216-5.619.771-7.342 3.81-1.758 3.031-2.661 8.253-2.661 17.445v.033c0 9.153.903 14.414 2.661 17.413 1.723 3.036 3.575 3.587 7.337 3.843 3.768.219 13.243.349 21.465.349 8.204 0 17.677-.13 21.446-.345 3.771-.255 5.624-.807 7.33-3.843 1.772-2.999 2.67-8.261 2.67-17.413v-.034c0-9.195-.897-14.417-2.673-17.448z"/><path fill="#FAFAFA" d="M24.76 45.222v-23.59l19.66 11.794z"/></svg>