<svg xmlns="http://www.w3.org/2000/svg" width="43" height="43" xml:space="preserve"><circle fill="#5f6368" cx="21.5" cy="21.499" r="21.5"/><g fill="#fff"><path d="M33.773 16.408c-.061-1.314-.27-2.212-.574-2.997a6.098 6.098 0 0 0-1.424-2.187 6.087 6.087 0 0 0-2.188-1.425c-.785-.305-1.683-.513-2.997-.573-1.316-.061-1.736-.074-5.09-.074s-3.773.014-5.09.074c-1.315.061-2.212.269-2.998.574a6.103 6.103 0 0 0-2.186 1.424 6.07 6.07 0 0 0-1.425 2.187c-.306.785-.514 1.683-.573 2.997-.061 1.316-.074 1.736-.074 5.09s.014 3.773.074 5.09c.06 1.314.268 2.212.573 2.997.31.824.796 1.57 1.425 2.187a6.034 6.034 0 0 0 2.187 1.426c.785.305 1.683.514 2.997.574 1.316.061 1.736.074 5.09.074s3.772-.015 5.09-.074c1.314-.061 2.211-.27 2.996-.574a6.32 6.32 0 0 0 3.611-3.611c.305-.785.514-1.682.574-2.996.061-1.316.074-1.736.074-5.091.003-3.355-.011-3.775-.072-5.092zm-2.222 10.079c-.056 1.204-.256 1.856-.425 2.291a4.088 4.088 0 0 1-2.344 2.344c-.435.17-1.087.369-2.291.426-1.302.06-1.691.071-4.99.071-3.297 0-3.687-.014-4.989-.071-1.203-.057-1.857-.256-2.292-.426a3.838 3.838 0 0 1-1.42-.924 3.83 3.83 0 0 1-.924-1.42c-.169-.435-.37-1.087-.425-2.291-.06-1.302-.072-1.691-.072-4.989s.013-3.688.072-4.989c.055-1.204.256-1.856.425-2.292a3.806 3.806 0 0 1 .924-1.419 3.798 3.798 0 0 1 1.419-.924c.436-.169 1.088-.369 2.292-.425 1.302-.059 1.692-.071 4.989-.071s3.688.013 4.988.071c1.205.056 1.857.256 2.292.425a3.825 3.825 0 0 1 1.42.924c.409.397.726.884.923 1.419.17.436.37 1.088.426 2.292.059 1.302.071 1.692.071 4.989s-.011 3.688-.069 4.989z"/><circle cx="28.094" cy="14.907" r="1.481"/><path d="M21.502 15.158a6.34 6.34 0 1 0-.16 12.678 6.34 6.34 0 0 0 .16-12.678zm0 10.455a4.115 4.115 0 1 1-.011-8.23h.011a4.115 4.115 0 0 1 0 8.23z"/></g></svg>