<svg xmlns="http://www.w3.org/2000/svg" width="27" height="28" viewBox="-2.5 -3 27 28" xml:space="preserve"><path fill="#5f6368" d="m24.297 24.099-7.835-8.164a11.066 11.066 0 0 0 3.232-7.833C19.694 1.993 14.731-3 8.611-3 2.493-3-2.5 1.993-2.5 8.102c0 6.108 4.993 11.102 11.103 11.102 2.681 0 5.149-.959 7.077-2.543l7.873 8.172a.538.538 0 0 0 .372.167.524.524 0 0 0 .372-.901zM8.61 18.146c-5.561 0-10.064-4.5-10.064-10.043 0-5.541 4.503-10.044 10.064-10.044S18.654 2.562 18.654 8.103c0 5.543-4.503 10.043-10.044 10.043z"/></svg>