<svg xmlns="http://www.w3.org/2000/svg" width="108" height="84" viewBox="0 12 108 84" xml:space="preserve"><path fill="#fff" d="M17.884 44.178h3.553v7.107h-3.553v-7.107zm-7.107 0h3.553v7.107h-3.553v-7.107zm95.549-12.832-1.876-2.96-8.884 5.329 1.777 3.061 8.983-5.43z"/><path fill="#fff" d="m91.619 44.277-9.478-3.158V19.107c0-3.948-3.256-7.107-7.106-7.107a7.078 7.078 0 0 0-7.105 7.107v1.283L26.471 36.974h-12.14C6.426 36.963.01 43.363 0 51.268a14.313 14.313 0 0 0 10.974 13.936l6.91 29.415A1.81 1.81 0 0 0 19.661 96h.296l13.424-2.566a4.384 4.384 0 0 0 2.072-1.185 4.244 4.244 0 0 0 .119-6.001c-.04-.04-.079-.08-.119-.118l-1.777-1.777-4.443-17.57L67.731 82.18v1.285c0 3.946 3.255 7.105 7.105 7.105s7.107-3.257 7.107-7.105V61.551l9.476-3.16c.692-.197 1.283-.889 1.283-1.677V45.956c.2-.79-.294-1.481-1.083-1.679zM67.831 78.232 28.544 62.539V40.032l39.287-15.694v53.894zM3.572 51.285c0-5.922 4.837-10.759 10.66-10.759h10.76v21.421H14.331c-5.922-.002-10.759-4.739-10.759-10.662zm27.341 35.141 2.171 2.171a.64.64 0 0 1 .197.494c0 .1 0 .296-.197.493l-.297.196-11.747 2.271-6.218-26.454h10.66l5.035 20.037c.003.299.1.595.396.792zm47.677-3.06a3.539 3.539 0 0 1-3.555 3.553 3.54 3.54 0 0 1-3.554-3.553v-64.16a3.54 3.54 0 0 1 3.554-3.555 3.539 3.539 0 0 1 3.555 3.555v64.16zm10.66-28.034-7.108 2.369v-12.93l7.108 2.37v8.191zm6.316 13.522 8.884 5.331 1.876-3.06-8.982-5.329-1.778 3.058zm.89-19.345v3.553h10.66v-3.553h-10.66z"/></svg>