<svg text-rendering="geometricPrecision" image-rendering="optimizeQuality" shape-rendering="geometricPrecision" xmlns="http://www.w3.org/2000/svg" width="43" height="43" xml:space="preserve"><path fill="#202124" d="M21.5 42.749c11.736 0 21.25-9.515 21.25-21.25C42.75 9.765 33.236.25 21.5.25 9.765.25.25 9.764.25 21.5c0 11.734 9.514 21.249 21.25 21.249"/><path fill="#FFF" d="M31.316 12.142H11.458a2.479 2.479 0 0 0-2.469 2.483L8.976 29.52a2.49 2.49 0 0 0 2.482 2.481h19.858a2.49 2.49 0 0 0 2.482-2.481V14.625a2.488 2.488 0 0 0-2.482-2.483zm0 4.965-9.931 6.208-9.929-6.208v-2.483l9.929 6.207 9.931-6.207v2.483z"/></svg>