<svg xmlns="http://www.w3.org/2000/svg" width="43" height="43" xml:space="preserve"><circle fill="#202124" cx="21.583" cy="21.584" r="21.299"/><path fill="#F2F2F2" d="M23.307 28.805c-1.612-.119-2.292-.922-3.551-1.688-.689 3.638-1.551 7.136-4.05 8.963-.776-5.517 1.12-9.651 2.016-14.029-1.517-2.551.173-7.687 3.378-6.42 3.938 1.551-3.403 9.479 1.526 10.47 5.151 1.034 7.256-8.928 4.05-12.167-4.602-4.679-13.409-.112-12.323 6.583.259 1.637 1.956 2.137.672 4.395-2.947-.655-3.826-2.981-3.706-6.084.173-5.067 4.567-8.617 8.962-9.117 5.541-.621 10.771 2.042 11.479 7.273.811 5.895-2.499 12.28-8.445 11.823h-.008z"/></svg>