<svg xmlns="http://www.w3.org/2000/svg" width="35" height="35" xml:space="preserve"><g fill="#FFF"><circle cx="12.086" cy="28.742" r="3.565"/><path d="M23.51 25.143a3.6 3.6 0 1 0-.708 7.164 3.6 3.6 0 0 0 .708-7.164zM30.848 11.573a.933.933 0 0 0-.797-.416h-3.945v-.069a7.58 7.58 0 0 0-15.161-.001v.07H8.002L6.998 6.588a1.04 1.04 0 0 0-1.004-.796H1.667v2.077h3.496l3.219 14.78c.085.486.511.838 1.004.831H27.49a1.038 1.038 0 0 0 1.004-.796l2.561-10.246a.967.967 0 0 0-.207-.865zm-12.323 5.019a5.504 5.504 0 1 1 5.503-5.504 5.537 5.537 0 0 1-5.503 5.504z"/><path d="m17.694 11.192-1.903-1.938-1.489 1.453 2.631 2.666c.192.195.453.308.727.312a.969.969 0 0 0 .727-.277l4.361-4.119-1.42-1.523-3.634 3.426z"/></g></svg>