<svg xmlns="http://www.w3.org/2000/svg" width="43" height="43" viewBox="128.5 128.5 43 43" xml:space="preserve"><circle fill="#5f6368" cx="150" cy="150" r="21.5"/><path fill="#fff" d="M163 141.943c-.964.418-1.984.707-3.054.836a5.378 5.378 0 0 0 2.331-2.949 10.459 10.459 0 0 1-3.376 1.286 5.362 5.362 0 0 0-3.897-1.671 5.328 5.328 0 0 0-5.189 6.533 15.1 15.1 0 0 1-10.992-5.56 5.342 5.342 0 0 0 1.647 7.118 5.094 5.094 0 0 1-2.411-.667v.081c0 2.57 1.849 4.723 4.275 5.223a6.11 6.11 0 0 1-1.414.176c-.345 0-.675-.031-1.004-.096a5.315 5.315 0 0 0 4.981 3.695 10.635 10.635 0 0 1-6.629 2.289 9.41 9.41 0 0 1-1.269-.078 14.982 14.982 0 0 0 8.171 2.395c9.803 0 15.153-8.115 15.153-15.162v-.684a11.153 11.153 0 0 0 2.651-2.748l.026-.017z"/></svg>