<svg xmlns="http://www.w3.org/2000/svg" width="26" height="26" xml:space="preserve"><g fill="#FFF"><path d="M11.667.333C5.218.333-.01 5.563-.01 12.011s5.229 11.676 11.677 11.676c6.449 0 11.677-5.228 11.677-11.676S18.116.333 11.667.333zm0 21.799c-5.58 0-10.12-4.541-10.12-10.121s4.54-10.12 10.12-10.12 10.121 4.54 10.121 10.12c0 5.58-4.541 10.121-10.121 10.121z"/><path d="m15.978 6.6-4.28 4.28-3.84-4.28a.779.779 0 1 0-1.101 1.102l3.839 4.28-4.338 4.34a.778.778 0 0 0 1.1 1.099l4.282-4.278 3.838 4.278a.773.773 0 0 0 1.099 0 .774.774 0 0 0 0-1.099l-3.842-4.279 4.341-4.34A.778.778 0 0 0 15.978 6.6z"/></g></svg>