<svg viewBox="0 0 512 512" xml:space="preserve" xmlns="http://www.w3.org/2000/svg"><path d="m56.46 365.787 138.67-138.67 15.084 15.085-138.67 138.67zM301.792 242.263l15.085-15.085 138.67 138.67-15.085 15.084z"/><path d="M480 74.667H32c-17.673 0-32 14.327-32 32v298.67c0 17.673 14.327 32 32 32h448c17.673 0 32-14.327 32-32v-298.67c0-17.673-14.327-32-32-32zm10.667 330.67c0 5.891-4.776 10.667-10.667 10.667H32c-5.891 0-10.667-4.776-10.667-10.667v-298.67C21.333 100.776 26.109 96 32 96h448c5.891 0 10.667 4.776 10.667 10.667v298.67z"/><path d="M484.15 87.552 256 263.852 27.85 87.552l-13.035 16.896 234.67 181.33a10.603 10.603 0 0 0 6.517 2.219 10.6 10.6 0 0 0 6.517-2.219l234.67-181.33-13.035-16.896z"/></svg>