<svg xmlns="http://www.w3.org/2000/svg" width="108" height="68" viewBox="0 20 108 68" xml:space="preserve"><path fill="#fff" d="m99.9 48.8-2.8-11.1c.8-.2 1.3-.8 1.3-1.601v-1.8c0-3.899-3.2-7.1-7.101-7.1H78.7v-3.7c0-1.9-1.6-3.5-3.5-3.5H10.6a3.499 3.499 0 0 0-3.5 3.5V54c0 .9.8 1.7 1.7 1.7.9 0 1.7-.8 1.7-1.7V23.5l.101-.1h64.6l.1.1V54c0 .9.801 1.7 1.7 1.7.9 0 1.7-.8 1.7-1.7v-1.9h19.8c2.4 0 4.5 1.601 5.2 3.801h-5.2c-.899 0-1.7.8-1.7 1.699v3.6c0 2.899 2.4 5.3 5.301 5.3H104v7.4h-4.3c-1.951-5.578-8.055-8.52-13.633-6.568A10.701 10.701 0 0 0 79.5 73.9h-.8V61.2c0-.9-.8-1.7-1.7-1.7-.899 0-1.7.7-1.7 1.7v12.7H40.4a10.7 10.7 0 0 0-20.2 0h-9.7l-.1-.102V70h7.3c.9 0 1.7-.7 1.7-1.7 0-.899-.7-1.7-1.7-1.7h-16c-.9 0-1.7.8-1.7 1.7 0 .9.8 1.7 1.7 1.7h5.5v3.7c0 1.899 1.6 3.5 3.5 3.5h9v.1c0 5.909 4.791 10.7 10.7 10.7s10.7-4.791 10.7-10.7v-.1H79v.1c0 5.882 4.769 10.65 10.65 10.65s10.649-4.769 10.649-10.65v-.1h5.5c.899 0 1.699-.8 1.699-1.7v-18a8.997 8.997 0 0 0-7.598-8.7zM78.7 30.6h12.7c2 0 3.7 1.601 3.7 3.7v.1H78.7v-3.8zm0 18.1v-11h15l2.8 11H78.7zM30.4 84.6c-4 0-7.3-3.3-7.3-7.3s3.3-7.3 7.3-7.3 7.3 3.3 7.3 7.3-3.3 7.3-7.3 7.3zm59.201 0c-4 0-7.301-3.3-7.301-7.3s3.301-7.3 7.301-7.3 7.3 3.3 7.3 7.3-3.3 7.3-7.3 7.3zm14.5-21.5h-1.9c-1.1 0-1.9-.8-1.9-1.898v-1.9h3.801V63.1h-.001zM30.4 73.8c-1.9 0-3.5 1.601-3.5 3.5 0 1.9 1.6 3.5 3.5 3.5 1.899 0 3.5-1.6 3.5-3.5s-1.6-3.5-3.5-3.5zm59.201 0c-1.9 0-3.5 1.601-3.5 3.5 0 1.9 1.6 3.5 3.5 3.5 1.898 0 3.5-1.6 3.5-3.5s-1.601-3.5-3.5-3.5zM69.9 66.7H44.7c-.9 0-1.7.8-1.7 1.7 0 .898.8 1.699 1.7 1.699h25.1c.9 0 1.7-.699 1.7-1.699s-.7-1.7-1.6-1.7zm-43.1-7.2H5.3c-.9 0-1.7.7-1.7 1.7s.7 1.7 1.7 1.7h21.5c.9 0 1.7-.7 1.7-1.7s-.8-1.7-1.7-1.7z"/></svg>