<svg xmlns="http://www.w3.org/2000/svg" width="35" height="35" xml:space="preserve"><path fill="#FFF" d="M17.438.511A16.878 16.878 0 0 0 .511 17.438c0 9.386 7.54 16.927 16.927 16.927s16.927-7.541 16.927-16.927A16.88 16.88 0 0 0 17.438.511zm2.46 17.234 5.771 5.771c.154.153.23.385.23.539a.834.834 0 0 1-.23.539l-1.076 1.076a.834.834 0 0 1-.54.231.695.695 0 0 1-.537-.231l-5.771-5.771a.373.373 0 0 0-.538 0l-5.771 5.771a.827.827 0 0 1-.538.231.699.699 0 0 1-.539-.231l-1.077-1.076a.836.836 0 0 1-.231-.539c0-.154.078-.386.231-.539l5.771-5.771a.373.373 0 0 0 0-.538l-5.771-5.771a.83.83 0 0 1-.231-.539c0-.154.078-.384.231-.539l1.077-1.077a.832.832 0 0 1 .539-.231c.154 0 .385.078.538.231l5.771 5.771a.373.373 0 0 0 .538 0l5.771-5.771a.827.827 0 0 1 .537-.231c.232 0 .385.078.54.231l1.076 1.077a.83.83 0 0 1 .23.539.83.83 0 0 1-.23.539l-5.771 5.771c-.152.077-.152.384 0 .538z"/></svg>