<svg xmlns="http://www.w3.org/2000/svg" width="30" height="28" xml:space="preserve"><path fill="#fff" d="M14.926 14.713C7.23 14.713.879 20.535 0 28h1.323c.868-6.754 6.616-11.994 13.603-11.994s12.733 5.24 13.602 11.984h1.313c-.879-7.465-7.229-13.277-14.925-13.277h.01zm0-14.713c-3.959 0-7.198 3.218-7.198 7.198 0 3.949 3.239 7.177 7.198 7.177 3.961 0 7.198-3.229 7.198-7.198C22.124 3.218 18.887 0 14.926 0zm0 13.063c-3.239 0-5.886-2.646-5.886-5.875 0-3.25 2.646-5.896 5.886-5.896s5.875 2.646 5.875 5.896c0 3.239-2.647 5.875-5.875 5.875z"/></svg>