<svg xmlns="http://www.w3.org/2000/svg" width="108" height="108" viewBox="46 46 108 108" xml:space="preserve"><path fill="#fff" d="M100 104.4c-5.91.014-10.689 4.814-10.675 10.725A10.704 10.704 0 0 0 92.7 122.9v9.699a7.4 7.4 0 0 0 7.4 7.4 7.4 7.4 0 0 0 7.4-7.4V122.9a11 11 0 0 0 3.4-7.801c-.162-5.917-4.979-10.648-10.9-10.699zm3.8 14.7c-1 1-1.6 2.301-1.6 3.7v9.7c0 1.2-1 2.2-2.2 2.2s-2.2-1-2.2-2.2v-9.7c0-1.399-.6-2.7-1.6-3.7a5.395 5.395 0 0 1-1.7-4c0-3 2.5-5.5 5.5-5.5s5.5 2.5 5.5 5.5c0 1.5-.6 3-1.7 4zm27.6-28.8h-7.8V69.6c-.005-13.034-10.575-23.596-23.609-23.59-13.027.005-23.586 10.564-23.591 23.59v20.6h-7.8a7.8 7.8 0 0 0-7.8 7.8v48.2c0 4.3 3.5 7.8 7.8 7.8h62.8c4.3 0 7.8-3.5 7.8-7.8V98.1c0-4.3-3.5-7.8-7.8-7.8zM81.6 69.6c.005-10.162 8.247-18.396 18.409-18.391 10.155.005 18.385 8.236 18.391 18.391v20.6H81.6V69.6zm52.4 76.6c0 1.399-1.2 2.6-2.6 2.6H68.6a2.6 2.6 0 0 1-2.6-2.6V98.1c0-1.4 1.2-2.6 2.6-2.6h62.8c1.399 0 2.6 1.2 2.6 2.6v48.1z"/></svg>