<svg xmlns="http://www.w3.org/2000/svg" width="30" height="28" xml:space="preserve"><path fill="#fff" d="M28.488 23.3c-2.418-5.073-7.588-8.587-13.572-8.587h.01C7.23 14.713.879 20.535 0 28h1.323c.868-6.754 6.616-11.994 13.603-11.994 5.592 0 10.389 3.355 12.525 8.153l1.037-.859zM14.926 0c-3.959 0-7.198 3.218-7.198 7.198 0 3.949 3.239 7.177 7.198 7.177 3.961 0 7.198-3.229 7.198-7.198C22.124 3.218 18.887 0 14.926 0zm0 13.063c-3.239 0-5.886-2.646-5.886-5.875 0-3.25 2.646-5.896 5.886-5.896s5.875 2.646 5.875 5.896c0 3.239-2.647 5.875-5.875 5.875z"/><circle fill="#333" cx="23.484" cy="21.484" r="6.516"/><path fill="#fff" d="m19.898 25.398 3.02-4.08-2.66-3.739h1.23l1.42 2c.3.42.5.739.629.96.171-.28.381-.58.621-.9l1.57-2.07h1.129l-2.75 3.682 2.961 4.141h-1.271l-1.97-2.801c-.101-.148-.229-.318-.341-.5-.18.271-.301.471-.381.58l-1.959 2.721h-1.25v.008h.002z"/></svg>