<svg xmlns="http://www.w3.org/2000/svg" width="30" height="28" viewBox="3.5 0 30 28" xml:space="preserve"><path fill="#fff" d="M27.045 21.637c-1.754 0-3.182 1.428-3.182 3.182S25.291 28 27.045 28s3.183-1.428 3.183-3.182-1.429-3.181-3.183-3.181zm0 5.09a1.909 1.909 0 1 1 .002-3.818 1.909 1.909 0 0 1-.002 3.818zM14.318 21.637c-1.754 0-3.182 1.428-3.182 3.182S12.564 28 14.318 28c1.753 0 3.182-1.428 3.182-3.182s-1.428-3.181-3.182-3.181zm0 5.09c-1.053 0-1.909-.855-1.909-1.908s.856-1.909 1.909-1.909c1.052 0 1.909.856 1.909 1.909s-.856 1.908-1.909 1.908zM29.591 19.091H14.902a3.19 3.19 0 0 1-3.12-2.558L8.578.512A.636.636 0 0 0 7.955 0H4.136a.636.636 0 0 0 0 1.273h3.296l3.102 15.51a4.467 4.467 0 0 0 4.368 3.58H29.59a.637.637 0 0 0 .001-1.272z"/><path fill="#fff" d="M32.613 4.033a.637.637 0 0 0-.477-.215H9.227a.636.636 0 0 0 0 1.272h22.189l-.904 7.237A1.915 1.915 0 0 1 28.616 14h-17.48a.637.637 0 0 0 0 1.274h17.48a3.186 3.186 0 0 0 3.157-2.788l.994-7.952a.632.632 0 0 0-.154-.501z"/></svg>