<svg xmlns="http://www.w3.org/2000/svg" width="24" height="24" xml:space="preserve"><path fill="none" d="M0 0h24v24H0V0z"/><path d="m12 22.35-1.45-1.32C5.4 16.359 2 13.279 2 9.5 2 6.42 4.42 4 7.5 4c1.74 0 3.41.81 4.5 2.09C13.09 4.81 14.76 4 16.5 4 19.58 4 22 6.42 22 9.5c0 3.779-3.4 6.859-8.55 11.54L12 22.35z"/><path d="M21.712 9.343c-.285-3.131-2.501-5.402-5.274-5.402-1.848 0-3.539.994-4.491 2.588C11.002 4.915 9.38 3.94 7.562 3.94c-2.773 0-4.989 2.271-5.273 5.402-.022.138-.115.867.166 2.053.404 1.712 1.337 3.27 2.698 4.502l6.789 6.161 6.906-6.161c1.36-1.232 2.295-2.79 2.698-4.502.28-1.186.186-1.914.166-2.052zm-.898 1.882c-.369 1.563-1.223 2.987-2.469 4.116l-6.4 5.709-6.29-5.707c-1.248-1.131-2.103-2.555-2.472-4.12-.266-1.123-.157-1.757-.156-1.761l.006-.038C3.277 6.681 5.181 4.69 7.562 4.69c1.757 0 3.303 1.08 4.037 2.816l.345.818.345-.818c.722-1.71 2.35-2.816 4.148-2.816 2.381 0 4.285 1.991 4.533 4.77.003.006.111.642-.156 1.765z"/></svg>