<svg xmlns="http://www.w3.org/2000/svg" width="28" height="25" viewBox="0.083 0 28 25" xml:space="preserve"><path fill="#212121" d="M24.7 3.78C23.45 2.5 21.76 1.8 19.96 1.8s-3.5.7-4.78 1.98l-.66.67-.67-.68a6.796 6.796 0 0 0-4.8-1.97c-1.8 0-3.5.7-4.76 1.97A6.613 6.613 0 0 0 2.3 8.54c0 1.8.7 3.5 1.98 4.76L14 23c.14.141.32.2.5.2.17 0 .35-.06.48-.2l9.72-9.68a6.68 6.68 0 0 0 1.98-4.771c0-1.8-.7-3.5-1.97-4.77h-.01zm-.98 8.56-9.23 9.2-9.21-9.22c-1.03-1-1.58-2.35-1.58-3.8 0-1.4.55-2.76 1.56-3.76 1-1 2.35-1.57 3.77-1.57 1.44 0 2.78.55 3.8 1.56L14 5.93c.3.27.73.27 1 0l1.16-1.16a5.335 5.335 0 0 1 7.56 0c1 1 1.56 2.35 1.56 3.78 0 1.43-.55 2.77-1.56 3.8v-.01z"/></svg>