<svg xmlns="http://www.w3.org/2000/svg" width="25" height="25" xml:space="preserve"><path fill="#5e6368" d="M22.7 3.78C21.45 2.5 19.76 1.8 17.96 1.8s-3.5.7-4.78 1.98l-.66.67-.67-.68a6.796 6.796 0 0 0-4.8-1.97c-1.8 0-3.5.7-4.76 1.97A6.613 6.613 0 0 0 .3 8.54c0 1.8.7 3.5 1.98 4.76L12 23c.14.141.32.2.5.2.17 0 .35-.06.48-.2l9.72-9.68a6.679 6.679 0 0 0 1.979-4.771c0-1.8-.699-3.5-1.97-4.77H22.7zm-.979 8.56-9.23 9.2-9.21-9.22c-1.03-1-1.58-2.35-1.58-3.78 0-1.43.55-2.78 1.56-3.78 1-1 2.35-1.57 3.78-1.57s2.77.55 3.8 1.56L12 5.93c.3.27.73.27 1 0l1.16-1.16c1-1 2.359-1.57 3.779-1.57s2.771.56 3.781 1.57c1 1 1.569 2.35 1.569 3.78 0 1.43-.569 2.77-1.58 3.8l.012-.01z"/></svg>